<?xml version="1.0" encoding="UTF-8" standalone="no"?> <svg xmlns:svg="http://www.w3.org/2000/svg" xmlns="http://www.w3.org/2000/svg" xmlns:xlink="http://www.w3.org/1999/xlink" width="1000" height="600" viewBox="0 0 1000 600"><title>Workbench plan</title><style type="text/css"> .lines { stroke: rgba(0,0,0,0.5); stroke-width: 0.03; stroke-dasharray: 0.1, 0.1; opacity: 0.5; } .lines &gt; g &gt; path:nth-child(6n+1) { stroke: #000; stroke-width: 0.05; } .lines &gt; g &gt; path:nth-child(12n+1) { stroke: #000; stroke-width: 0.07; } .structure rect { fill: hsla(21deg,65%,45%,0.67); } .beams rect { fill: hsla(32deg,65%,45%,0.33); } .shelves rect { fill: hsla(42deg,65%,45%,1); } .shelves rect[height="1.125"] { fill: hsla(32deg,65%,45%,1); filter: url(#thinstroker); } .obstructions &gt; * { fill: #E33; stroke: red; } .obstructions rect { stroke-width: 0; } </style><filter id="stroker"><feMorphology in="SourceAlpha" result="DILATED" operator="dilate" radius="2"></feMorphology><feFlood flood-color="#FFF" flood-opacity="1" result="STROKE"></feFlood><feComposite in="STROKE" in2="DILATED" operator="in" result="OUTLINE"></feComposite><feMerge><feMergeNode in="OUTLINE"></feMergeNode><feMergeNode in="SourceGraphic"></feMergeNode></feMerge></filter><filter id="thinstroker"><feMorphology in="SourceAlpha" result="DILATED" operator="dilate" radius="0.01"></feMorphology><feFlood flood-color="#FFF" flood-opacity="1" result="STROKES"></feFlood><feComposite in="STROKES" in2="DILATED" operator="in" result="OUTLINE"></feComposite><feMerge><feMergeNode in="OUTLINE"></feMergeNode><feMergeNode in="SourceGraphic"></feMergeNode></feMerge></filter><rect height="100%" width="100%" fill="#EEE"></rect><g transform="translate(25,25) scale(15)"><rect width="63" height="31" fill="hsla(42deg,20%,60%,0.5)"></rect><g class="lines"><g class="v-lines"><path d="M 0,0 l 0,31"></path><path d="M 1,0 l 0,31"></path><path d="M 2,0 l 0,31"></path><path d="M 3,0 l 0,31"></path><path d="M 4,0 l 0,31"></path><path d="M 5,0 l 0,31"></path><path d="M 6,0 l 0,31"></path><path d="M 7,0 l 0,31"></path><path d="M 8,0 l 0,31"></path><path d="M 9,0 l 0,31"></path><path d="M 10,0 l 0,31"></path><path d="M 11,0 l 0,31"></path><path d="M 12,0 l 0,31"></path><path d="M 13,0 l 0,31"></path><path d="M 14,0 l 0,31"></path><path d="M 15,0 l 0,31"></path><path d="M 16,0 l 0,31"></path><path d="M 17,0 l 0,31"></path><path d="M 18,0 l 0,31"></path><path d="M 19,0 l 0,31"></path><path d="M 20,0 l 0,31"></path><path d="M 21,0 l 0,31"></path><path d="M 22,0 l 0,31"></path><path d="M 23,0 l 0,31"></path><path d="M 24,0 l 0,31"></path><path d="M 25,0 l 0,31"></path><path d="M 26,0 l 0,31"></path><path d="M 27,0 l 0,31"></path><path d="M 28,0 l 0,31"></path><path d="M 29,0 l 0,31"></path><path d="M 30,0 l 0,31"></path><path d="M 31,0 l 0,31"></path><path d="M 32,0 l 0,31"></path><path d="M 33,0 l 0,31"></path><path d="M 34,0 l 0,31"></path><path d="M 35,0 l 0,31"></path><path d="M 36,0 l 0,31"></path><path d="M 37,0 l 0,31"></path><path d="M 38,0 l 0,31"></path><path d="M 39,0 l 0,31"></path><path d="M 40,0 l 0,31"></path><path d="M 41,0 l 0,31"></path><path d="M 42,0 l 0,31"></path><path d="M 43,0 l 0,31"></path><path d="M 44,0 l 0,31"></path><path d="M 45,0 l 0,31"></path><path d="M 46,0 l 0,31"></path><path d="M 47,0 l 0,31"></path><path d="M 48,0 l 0,31"></path><path d="M 49,0 l 0,31"></path><path d="M 50,0 l 0,31"></path><path d="M 51,0 l 0,31"></path><path d="M 52,0 l 0,31"></path><path d="M 53,0 l 0,31"></path><path d="M 54,0 l 0,31"></path><path d="M 55,0 l 0,31"></path><path d="M 56,0 l 0,31"></path><path d="M 57,0 l 0,31"></path><path d="M 58,0 l 0,31"></path><path d="M 59,0 l 0,31"></path><path d="M 60,0 l 0,31"></path><path d="M 61,0 l 0,31"></path><path d="M 62,0 l 0,31"></path><path d="M 63,0 l 0,31"></path></g><g class="h-lines"><path d="M 0,0 l 63,0"></path><path d="M 0,1 l 63,0"></path><path d="M 0,2 l 63,0"></path><path d="M 0,3 l 63,0"></path><path d="M 0,4 l 63,0"></path><path d="M 0,5 l 63,0"></path><path d="M 0,6 l 63,0"></path><path d="M 0,7 l 63,0"></path><path d="M 0,8 l 63,0"></path><path d="M 0,9 l 63,0"></path><path d="M 0,10 l 63,0"></path><path d="M 0,11 l 63,0"></path><path d="M 0,12 l 63,0"></path><path d="M 0,13 l 63,0"></path><path d="M 0,14 l 63,0"></path><path d="M 0,15 l 63,0"></path><path d="M 0,16 l 63,0"></path><path d="M 0,17 l 63,0"></path><path d="M 0,18 l 63,0"></path><path d="M 0,19 l 63,0"></path><path d="M 0,20 l 63,0"></path><path d="M 0,21 l 63,0"></path><path d="M 0,22 l 63,0"></path><path d="M 0,23 l 63,0"></path><path d="M 0,24 l 63,0"></path><path d="M 0,25 l 63,0"></path><path d="M 0,26 l 63,0"></path><path d="M 0,27 l 63,0"></path><path d="M 0,28 l 63,0"></path><path d="M 0,29 l 63,0"></path><path d="M 0,30 l 63,0"></path><path d="M 0,31 l 63,0"></path></g></g><g class="structure"><g class="beams"><rect x="0" y="0" width="63" height="1.45"></rect><rect x="0" y="1.5" width="63" height="1.45"></rect><rect x="1.5" y="20.25" width="14.5" height="9.2"></rect><rect x="17.5" y="20.25" width="14.25" height="9.2"></rect><rect x="33.25" y="20.25" width="14.75" height="9.2"></rect><rect x="49.5" y="20.25" width="12.5" height="9.2"></rect></g><rect x="0" y="29.5" width="63.5" height="1.45"></rect><rect x="0" y="3" width="1.5" height="26.5"></rect><rect x="16" y="3" width="1.5" height="26.5"></rect><rect x="31.75" y="0" width="1.5" height="29.5"></rect><rect x="48" y="3" width="1.5" height="26.5"></rect><rect x="62" y="3" width="1.5" height="26.5"></rect></g><g class="obstructions"><rect x="17.5" y="5.75" width="2.75" height="3.375"></rect></g></g></svg> 